<svg width="400" height="300" viewBox="0 0 400 300" xmlns="http://www.w3.org/2000/svg">
  <defs>
    <linearGradient id="bgGradient" x1="0%" y1="0%" x2="100%" y2="100%">
      <stop offset="0%" style="stop-color:#2563eb;stop-opacity:1" />
      <stop offset="100%" style="stop-color:#1e40af;stop-opacity:1" />
    </linearGradient>
    <linearGradient id="chartGradient" x1="0%" y1="0%" x2="100%" y2="100%">
      <stop offset="0%" style="stop-color:#3b82f6;stop-opacity:1" />
      <stop offset="100%" style="stop-color:#1e3a8a;stop-opacity:1" />
    </linearGradient>
  </defs>
  
  <!-- Background -->
  <rect width="400" height="300" fill="url(#bgGradient)"/>
  
  <!-- Mushrooms -->
  <g transform="translate(120,150)">
    <!-- Edible mushroom -->
    <ellipse cx="0" cy="-10" rx="20" ry="10" fill="#3b82f6" stroke="#ffffff" stroke-width="2"/>
    <rect x="-3" y="-5" width="6" height="20" fill="#ffffff"/>
    <circle cx="8" cy="-10" r="2" fill="#ffffff" opacity="0.8"/>
    <text x="0" y="25" text-anchor="middle" fill="#ffffff" font-family="Arial, sans-serif" font-size="10">Edible</text>
  </g>
  
  <g transform="translate(280,150)">
    <!-- Poisonous mushroom -->
    <ellipse cx="0" cy="-10" rx="20" ry="10" fill="#1e3a8a" stroke="#ffffff" stroke-width="2"/>
    <rect x="-3" y="-5" width="6" height="20" fill="#ffffff"/>
    <circle cx="-5" cy="-12" r="2" fill="#ffffff" opacity="0.8"/>
    <circle cx="5" cy="-8" r="2" fill="#ffffff" opacity="0.8"/>
    <text x="0" y="25" text-anchor="middle" fill="#ffffff" font-family="Arial, sans-serif" font-size="10">Poisonous</text>
  </g>
  
  <!-- Central analysis chart -->
  <g transform="translate(200,100)">
    <!-- Chart background -->
    <rect x="-60" y="-30" width="120" height="60" fill="none" stroke="#ffffff" stroke-width="2" opacity="0.7"/>
    
    <!-- Bar chart -->
    <rect x="-50" y="-20" width="15" height="40" fill="url(#chartGradient)"/>
    <rect x="-30" y="-15" width="15" height="35" fill="url(#chartGradient)"/>
    <rect x="-10" y="-25" width="15" height="45" fill="url(#chartGradient)"/>
    <rect x="10" y="-10" width="15" height="30" fill="url(#chartGradient)"/>
    <rect x="30" y="-18" width="15" height="38" fill="url(#chartGradient)"/>
    
    <!-- Chart labels -->
    <text x="0" y="45" text-anchor="middle" fill="#ffffff" font-family="Arial, sans-serif" font-size="10">Feature Analysis</text>
  </g>
  
  <!-- Data points connecting to chart -->
  <g transform="translate(200,100)">
    <circle cx="-80" cy="-40" r="3" fill="#ffffff" opacity="0.8"/>
    <circle cx="80" cy="-40" r="3" fill="#ffffff" opacity="0.8"/>
    <circle cx="-80" cy="40" r="3" fill="#ffffff" opacity="0.8"/>
    <circle cx="80" cy="40" r="3" fill="#ffffff" opacity="0.8"/>
    
    <!-- Connecting lines -->
    <line x1="-80" y1="-40" x2="-60" y2="-25" stroke="#ffffff" stroke-width="1" opacity="0.5"/>
    <line x1="80" y1="-40" x2="60" y2="-25" stroke="#ffffff" stroke-width="1" opacity="0.5"/>
    <line x1="-80" y1="40" x2="-60" y2="25" stroke="#ffffff" stroke-width="1" opacity="0.5"/>
    <line x1="80" y1="40" x2="60" y2="25" stroke="#ffffff" stroke-width="1" opacity="0.5"/>
  </g>
  
  <!-- Decision tree representation -->
  <g transform="translate(200,220)">
    <circle cx="0" cy="0" r="8" fill="#3b82f6" stroke="#ffffff" stroke-width="2"/>
    <text x="0" y="3" text-anchor="middle" fill="#ffffff" font-family="Arial, sans-serif" font-size="8">Root</text>
    
    <!-- Branches -->
    <line x1="0" y1="8" x2="-25" y2="25" stroke="#ffffff" stroke-width="2"/>
    <line x1="0" y1="8" x2="25" y2="25" stroke="#ffffff" stroke-width="2"/>
    
    <!-- Leaf nodes -->
    <circle cx="-25" cy="25" r="6" fill="#3b82f6" stroke="#ffffff" stroke-width="1"/>
    <text x="-25" y="28" text-anchor="middle" fill="#ffffff" font-family="Arial, sans-serif" font-size="6">E</text>
    
    <circle cx="25" cy="25" r="6" fill="#1e3a8a" stroke="#ffffff" stroke-width="1"/>
    <text x="25" y="28" text-anchor="middle" fill="#ffffff" font-family="Arial, sans-serif" font-size="6">P</text>
    
    <text x="0" y="45" text-anchor="middle" fill="#ffffff" font-family="Arial, sans-serif" font-size="10">ML Classification</text>
  </g>
  
  <!-- Feature indicators -->
  <g transform="translate(80,80)">
    <rect x="-15" y="-8" width="30" height="16" fill="#3b82f6" stroke="#ffffff" stroke-width="1" opacity="0.8"/>
    <text x="0" y="2" text-anchor="middle" fill="#ffffff" font-family="Arial, sans-serif" font-size="8">Cap</text>
    <text x="0" y="25" text-anchor="middle" fill="#ffffff" font-family="Arial, sans-serif" font-size="8">Shape</text>
  </g>
  
  <g transform="translate(320,80)">
    <rect x="-15" y="-8" width="30" height="16" fill="#3b82f6" stroke="#ffffff" stroke-width="1" opacity="0.8"/>
    <text x="0" y="2" text-anchor="middle" fill="#ffffff" font-family="Arial, sans-serif" font-size="8">Gill</text>
    <text x="0" y="25" text-anchor="middle" fill="#ffffff" font-family="Arial, sans-serif" font-size="8">Color</text>
  </g>
  
  <!-- Accuracy indicator -->
  <g transform="translate(200,50)">
    <circle cx="0" cy="0" r="20" fill="none" stroke="#ffffff" stroke-width="3" opacity="0.7"/>
    <path d="M 0,-20 A 20,20 0 1,1 17.32,10" fill="none" stroke="#3b82f6" stroke-width="3"/>
    <text x="0" y="2" text-anchor="middle" fill="#ffffff" font-family="Arial, sans-serif" font-size="10" font-weight="bold">95%</text>
    <text x="0" y="35" text-anchor="middle" fill="#ffffff" font-family="Arial, sans-serif" font-size="8">Accuracy</text>
  </g>
  
  <!-- Title -->
  <text x="200" y="25" text-anchor="middle" fill="#ffffff" font-family="Arial, sans-serif" font-size="16" font-weight="bold">Mushroom Analysis</text>
  <text x="200" y="285" text-anchor="middle" fill="#ffffff" font-family="Arial, sans-serif" font-size="12">ML Classification + R</text>
</svg>