<svg width="400" height="300" viewBox="0 0 400 300" xmlns="http://www.w3.org/2000/svg">
  <defs>
    <linearGradient id="bgGradient" x1="0%" y1="0%" x2="100%" y2="100%">
      <stop offset="0%" style="stop-color:#2563eb;stop-opacity:1" />
      <stop offset="100%" style="stop-color:#1e40af;stop-opacity:1" />
    </linearGradient>
    <linearGradient id="crossGradient" x1="0%" y1="0%" x2="100%" y2="100%">
      <stop offset="0%" style="stop-color:#3b82f6;stop-opacity:1" />
      <stop offset="100%" style="stop-color:#1e3a8a;stop-opacity:1" />
    </linearGradient>
  </defs>
  
  <!-- Background -->
  <rect width="400" height="300" fill="url(#bgGradient)"/>
  
  <!-- Hospital building -->
  <g transform="translate(200,120)">
    <rect x="-50" y="-40" width="100" height="80" fill="url(#crossGradient)" stroke="#ffffff" stroke-width="2"/>
    <!-- Medical Cross on building -->
    <rect x="-15" y="-25" width="30" height="10" fill="#ffffff"/>
    <rect x="-5" y="-30" width="10" height="20" fill="#ffffff"/>
    <!-- Windows -->
    <rect x="-35" y="-20" width="12" height="12" fill="#ffffff" opacity="0.7"/>
    <rect x="-35" y="0" width="12" height="12" fill="#ffffff" opacity="0.7"/>
    <rect x="23" y="-20" width="12" height="12" fill="#ffffff" opacity="0.7"/>
    <rect x="23" y="0" width="12" height="12" fill="#ffffff" opacity="0.7"/>
  </g>
  
  <!-- Patient flow arrows -->
  <g transform="translate(100,180)">
    <!-- Incoming patient -->
    <circle cx="0" cy="0" r="15" fill="#3b82f6" stroke="#ffffff" stroke-width="2"/>
    <circle cx="0" cy="-5" r="4" fill="#ffffff"/>
    <rect x="-3" y="0" width="6" height="8" fill="#ffffff"/>
    <!-- Arrow pointing to hospital -->
    <path d="M20,0 L70,0" stroke="#ffffff" stroke-width="3" marker-end="url(#arrowhead)"/>
  </g>
  
  <g transform="translate(300,180)">
    <!-- Outgoing patient -->
    <circle cx="0" cy="0" r="15" fill="#3b82f6" stroke="#ffffff" stroke-width="2"/>
    <circle cx="0" cy="-5" r="4" fill="#ffffff"/>
    <rect x="-3" y="0" width="6" height="8" fill="#ffffff"/>
    <!-- Curved arrow for readmission -->
    <path d="M-20,0 Q-50,-30 -80,0 Q-50,30 -20,0" stroke="#ffffff" stroke-width="2" fill="none" opacity="0.7"/>
    <text x="-50" y="-35" text-anchor="middle" fill="#ffffff" font-family="Arial, sans-serif" font-size="10">Readmission?</text>
  </g>
  
  <!-- Arrow marker -->
  <defs>
    <marker id="arrowhead" markerWidth="10" markerHeight="7" refX="9" refY="3.5" orient="auto">
      <polygon points="0 0, 10 3.5, 0 7" fill="#ffffff"/>
    </marker>
  </defs>
  
  <!-- Prediction chart -->
  <g transform="translate(200,220)">
    <rect x="-60" y="-20" width="120" height="40" fill="none" stroke="#ffffff" stroke-width="1" opacity="0.7"/>
    <!-- Bar chart showing prediction -->
    <rect x="-50" y="-15" width="20" height="30" fill="#3b82f6" opacity="0.8"/>
    <rect x="-25" y="-10" width="20" height="25" fill="#3b82f6" opacity="0.8"/>
    <rect x="0" y="-5" width="20" height="20" fill="#3b82f6" opacity="0.8"/>
    <rect x="25" y="-12" width="20" height="27" fill="#3b82f6" opacity="0.8"/>
    <!-- Labels -->
    <text x="0" y="35" text-anchor="middle" fill="#ffffff" font-family="Arial, sans-serif" font-size="10">Risk Prediction</text>
  </g>
  
  <!-- Medical data points -->
  <g transform="translate(200,120)">
    <circle cx="-70" cy="-20" r="3" fill="#ffffff" opacity="0.8"/>
    <circle cx="70" cy="-20" r="3" fill="#ffffff" opacity="0.8"/>
    <circle cx="-70" cy="20" r="3" fill="#ffffff" opacity="0.8"/>
    <circle cx="70" cy="20" r="3" fill="#ffffff" opacity="0.8"/>
    <circle cx="-85" cy="0" r="3" fill="#ffffff" opacity="0.8"/>
    <circle cx="85" cy="0" r="3" fill="#ffffff" opacity="0.8"/>
    
    <!-- Connecting lines to hospital -->
    <line x1="-70" y1="-20" x2="-50" y2="-30" stroke="#ffffff" stroke-width="1" opacity="0.4"/>
    <line x1="70" y1="-20" x2="50" y2="-30" stroke="#ffffff" stroke-width="1" opacity="0.4"/>
    <line x1="-70" y1="20" x2="-50" y2="30" stroke="#ffffff" stroke-width="1" opacity="0.4"/>
    <line x1="70" y1="20" x2="50" y2="30" stroke="#ffffff" stroke-width="1" opacity="0.4"/>
  </g>
  
  <!-- Title -->
  <text x="200" y="35" text-anchor="middle" fill="#ffffff" font-family="Arial, sans-serif" font-size="16" font-weight="bold">Hospital Readmission</text>
  <text x="200" y="285" text-anchor="middle" fill="#ffffff" font-family="Arial, sans-serif" font-size="12">Prediction Model</text>
</svg>