<svg width="400" height="300" viewBox="0 0 400 300" xmlns="http://www.w3.org/2000/svg">
  <defs>
    <linearGradient id="bgGradient" x1="0%" y1="0%" x2="100%" y2="100%">
      <stop offset="0%" style="stop-color:#2563eb;stop-opacity:1" />
      <stop offset="100%" style="stop-color:#1e40af;stop-opacity:1" />
    </linearGradient>
    <linearGradient id="crossGradient" x1="0%" y1="0%" x2="100%" y2="100%">
      <stop offset="0%" style="stop-color:#3b82f6;stop-opacity:1" />
      <stop offset="100%" style="stop-color:#1e3a8a;stop-opacity:1" />
    </linearGradient>
    <radialGradient id="lungGradient" cx="50%" cy="50%" r="50%">
      <stop offset="0%" style="stop-color:#3b82f6;stop-opacity:0.8" />
      <stop offset="100%" style="stop-color:#1e3a8a;stop-opacity:0.6" />
    </radialGradient>
  </defs>
  
  <!-- Background -->
  <rect width="400" height="300" fill="url(#bgGradient)"/>
  
  <!-- Medical Cross -->
  <g transform="translate(200,80)">
    <rect x="-25" y="-8" width="50" height="16" fill="url(#crossGradient)" stroke="#ffffff" stroke-width="1"/>
    <rect x="-8" y="-25" width="16" height="50" fill="url(#crossGradient)" stroke="#ffffff" stroke-width="1"/>
  </g>
  
  <!-- Lung representation -->
  <g transform="translate(200,160)">
    <!-- Left lung -->
    <ellipse cx="-30" cy="0" rx="25" ry="35" fill="url(#lungGradient)" stroke="#ffffff" stroke-width="2"/>
    <!-- Right lung -->
    <ellipse cx="30" cy="0" rx="25" ry="35" fill="url(#lungGradient)" stroke="#ffffff" stroke-width="2"/>
    
    <!-- Nodules -->
    <circle cx="-25" cy="-10" r="4" fill="#ffffff" opacity="0.9"/>
    <circle cx="35" cy="5" r="3" fill="#ffffff" opacity="0.9"/>
    <circle cx="-35" cy="15" r="2" fill="#ffffff" opacity="0.7"/>
  </g>
  
  <!-- MRI scan representation -->
  <g transform="translate(120,160)">
    <rect x="-20" y="-20" width="40" height="40" fill="#1e3a8a" stroke="#ffffff" stroke-width="2" opacity="0.8"/>
    <!-- Scan lines -->
    <line x1="-15" y1="-15" x2="15" y2="-15" stroke="#ffffff" stroke-width="1" opacity="0.6"/>
    <line x1="-15" y1="-5" x2="15" y2="-5" stroke="#ffffff" stroke-width="1" opacity="0.6"/>
    <line x1="-15" y1="5" x2="15" y2="5" stroke="#ffffff" stroke-width="1" opacity="0.6"/>
    <line x1="-15" y1="15" x2="15" y2="15" stroke="#ffffff" stroke-width="1" opacity="0.6"/>
    <!-- Detected nodule -->
    <circle cx="5" cy="-5" r="3" fill="#3b82f6" stroke="#ffffff" stroke-width="1"/>
    <text x="0" y="35" text-anchor="middle" fill="#ffffff" font-family="Arial, sans-serif" font-size="10">MRI Scan</text>
  </g>
  
  <!-- 2D image processing -->
  <g transform="translate(280,160)">
    <rect x="-20" y="-20" width="40" height="40" fill="#3b82f6" stroke="#ffffff" stroke-width="2" opacity="0.8"/>
    <!-- Pixelated representation -->
    <rect x="-15" y="-15" width="8" height="8" fill="#ffffff" opacity="0.7"/>
    <rect x="-5" y="-15" width="8" height="8" fill="#ffffff" opacity="0.5"/>
    <rect x="5" y="-15" width="8" height="8" fill="#ffffff" opacity="0.7"/>
    <rect x="-15" y="-5" width="8" height="8" fill="#ffffff" opacity="0.5"/>
    <rect x="-5" y="-5" width="8" height="8" fill="#ffffff" opacity="0.9"/>
    <rect x="5" y="-5" width="8" height="8" fill="#ffffff" opacity="0.5"/>
    <rect x="-15" y="5" width="8" height="8" fill="#ffffff" opacity="0.7"/>
    <rect x="-5" y="5" width="8" height="8" fill="#ffffff" opacity="0.5"/>
    <rect x="5" y="5" width="8" height="8" fill="#ffffff" opacity="0.7"/>
    <text x="0" y="35" text-anchor="middle" fill="#ffffff" font-family="Arial, sans-serif" font-size="10">2D Images</text>
  </g>
  
  <!-- Processing arrows -->
  <path d="M140,160 L160,160" stroke="#ffffff" stroke-width="2" marker-end="url(#arrowhead)"/>
  <path d="M240,160 L260,160" stroke="#ffffff" stroke-width="2" marker-end="url(#arrowhead)"/>
  
  <!-- Arrow marker -->
  <defs>
    <marker id="arrowhead" markerWidth="10" markerHeight="7" refX="9" refY="3.5" orient="auto">
      <polygon points="0 0, 10 3.5, 0 7" fill="#ffffff"/>
    </marker>
  </defs>
  
  <!-- Annotation points -->
  <g transform="translate(200,220)">
    <circle cx="-40" cy="0" r="3" fill="#ffffff" opacity="0.8"/>
    <circle cx="-20" cy="0" r="3" fill="#ffffff" opacity="0.8"/>
    <circle cx="0" cy="0" r="3" fill="#ffffff" opacity="0.8"/>
    <circle cx="20" cy="0" r="3" fill="#ffffff" opacity="0.8"/>
    <circle cx="40" cy="0" r="3" fill="#ffffff" opacity="0.8"/>
    
    <!-- Connecting lines -->
    <line x1="-40" y1="0" x2="-30" y2="-50" stroke="#ffffff" stroke-width="1" opacity="0.5"/>
    <line x1="-20" y1="0" x2="-15" y2="-50" stroke="#ffffff" stroke-width="1" opacity="0.5"/>
    <line x1="0" y1="0" x2="0" y2="-50" stroke="#ffffff" stroke-width="1" opacity="0.5"/>
    <line x1="20" y1="0" x2="15" y2="-50" stroke="#ffffff" stroke-width="1" opacity="0.5"/>
    <line x1="40" y1="0" x2="30" y2="-50" stroke="#ffffff" stroke-width="1" opacity="0.5"/>
    
    <text x="0" y="20" text-anchor="middle" fill="#ffffff" font-family="Arial, sans-serif" font-size="10">Annotations</text>
  </g>
  
  <!-- LUNA16 dataset indicator -->
  <g transform="translate(80,50)">
    <rect x="-25" y="-12" width="50" height="24" fill="#3b82f6" stroke="#ffffff" stroke-width="1" opacity="0.8"/>
    <text x="0" y="-2" text-anchor="middle" fill="#ffffff" font-family="Arial, sans-serif" font-size="10" font-weight="bold">LUNA16</text>
    <text x="0" y="8" text-anchor="middle" fill="#ffffff" font-family="Arial, sans-serif" font-size="8">Dataset</text>
  </g>
  
  <!-- Segmentation indicator -->
  <g transform="translate(320,50)">
    <rect x="-25" y="-12" width="50" height="24" fill="#3b82f6" stroke="#ffffff" stroke-width="1" opacity="0.8"/>
    <text x="0" y="-2" text-anchor="middle" fill="#ffffff" font-family="Arial, sans-serif" font-size="9" font-weight="bold">Segment</text>
    <text x="0" y="8" text-anchor="middle" fill="#ffffff" font-family="Arial, sans-serif" font-size="8">Analysis</text>
  </g>
  
  <!-- Title -->
  <text x="200" y="30" text-anchor="middle" fill="#ffffff" font-family="Arial, sans-serif" font-size="16" font-weight="bold">Lung Nodule Analysis</text>
  <text x="200" y="285" text-anchor="middle" fill="#ffffff" font-family="Arial, sans-serif" font-size="12">LUNA16 - MRI Processing</text>
</svg>