<svg width="150" height="100" viewBox="0 0 150 100" xmlns="http://www.w3.org/2000/svg">
    <defs>
        <linearGradient id="cppBg" x1="0%" y1="0%" x2="100%" y2="100%">
            <stop offset="0%" stop-color="#f1f5f9"/>
            <stop offset="100%" stop-color="#e2e8f0"/>
        </linearGradient>
        <linearGradient id="editorGrad" x1="0%" y1="0%" x2="100%" y2="100%">
            <stop offset="0%" stop-color="#1e293b"/>
            <stop offset="100%" stop-color="#0f172a"/>
        </linearGradient>
    </defs>
    
    <!-- Background -->
    <rect width="150" height="100" fill="url(#cppBg)" rx="8"/>
    
    <!-- IDE Interface -->
    <g transform="translate(5, 5)">
        <rect x="0" y="0" width="140" height="75" fill="url(#editorGrad)" rx="6" stroke="#334155" stroke-width="1"/>
        
        <!-- Title Bar -->
        <rect x="0" y="0" width="140" height="12" fill="#3b82f6" rx="6"/>
        <g transform="translate(5, 3)">
            <circle cx="3" cy="3" r="2" fill="#ef4444"/>
            <circle cx="9" cy="3" r="2" fill="#f59e0b"/>
            <circle cx="15" cy="3" r="2" fill="#10b981"/>
            <text x="25" y="6" font-family="Arial" font-size="5" fill="white" font-weight="bold">advanced_algorithm.cpp - VS Code</text>
        </g>
        
        <!-- Line Numbers -->
        <g transform="translate(5, 20)" font-family="monospace" font-size="5" fill="#64748b">
            <text x="0" y="0">01</text>
            <text x="0" y="6">02</text>
            <text x="0" y="12">03</text>
            <text x="0" y="18">04</text>
            <text x="0" y="24">05</text>
            <text x="0" y="30">06</text>
            <text x="0" y="36">07</text>
            <text x="0" y="42">08</text>
            <text x="0" y="48">09</text>
        </g>
        
        <!-- C++ Code -->
        <g transform="translate(18, 20)" font-family="monospace" font-size="5">
            <!-- Modern C++ features -->
            <text x="0" y="0" fill="#8b5cf6">#include</text>
            <text x="35" y="0" fill="#10b981">&lt;algorithm&gt;</text>
            
            <text x="0" y="6" fill="#8b5cf6">#include</text>
            <text x="35" y="6" fill="#10b981">&lt;memory&gt;</text>
            
            <text x="0" y="12" fill="#8b5cf6">template</text>
            <text x="35" y="12" fill="#ef4444">&lt;</text>
            <text x="38" y="12" fill="#3b82f6">typename</text>
            <text x="65" y="12" fill="#f8fafc">T</text>
            <text x="68" y="12" fill="#ef4444">&gt;</text>
            
            <text x="0" y="18" fill="#3b82f6">class</text>
            <text x="25" y="18" fill="#fbbf24">SmartContainer</text>
            <text x="80" y="18" fill="#f8fafc">{</text>
            
            <text x="0" y="24" fill="#3b82f6">private:</text>
            
            <text x="5" y="30" fill="#8b5cf6">std::unique_ptr</text>
            <text x="65" y="30" fill="#ef4444">&lt;</text>
            <text x="68" y="30" fill="#f8fafc">T[]</text>
            <text x="78" y="30" fill="#ef4444">&gt;</text>
            <text x="83" y="30" fill="#fbbf24">data_</text>
            <text x="95" y="30" fill="#f8fafc">;</text>
            
            <text x="0" y="36" fill="#3b82f6">public:</text>
            
            <text x="5" y="42" fill="#3b82f6">auto</text>
            <text x="25" y="42" fill="#fbbf24">process</text>
            <text x="45" y="42" fill="#f8fafc">()</text>
            <text x="53" y="42" fill="#8b5cf6">-&gt;</text>
            <text x="60" y="42" fill="#3b82f6">void</text>
            <text x="75" y="42" fill="#f8fafc">{</text>
            
            <text x="10" y="48" fill="#8b5cf6">std::ranges::sort</text>
            <text x="70" y="48" fill="#f8fafc">(data_.get());</text>
        </g>
        
        <!-- C++ Features Sidebar -->
        <g transform="translate(105, 15)">
            <rect x="0" y="0" width="30" height="55" fill="#374151" rx="3" opacity="0.9"/>
            <text x="15" y="8" font-family="Arial" font-size="4" fill="white" text-anchor="middle" font-weight="bold">C++20 Features</text>
            
            <g transform="translate(2, 12)" font-family="Arial" font-size="3" fill="#cbd5e1">
                <text x="0" y="0">• Concepts</text>
                <text x="0" y="5">• Modules</text>
                <text x="0" y="10">• Ranges</text>
                <text x="0" y="15">• Coroutines</text>
                <text x="0" y="20">• Lambdas</text>
                <text x="0" y="25">• Smart Ptrs</text>
                <text x="0" y="30">• Move Sem.</text>
                <text x="0" y="35">• Templates</text>
                <text x="0" y="40">• Constexpr</text>
            </g>
        </g>
    </g>
    
    <!-- Build Output Terminal -->
    <g transform="translate(5, 82)">
        <rect x="0" y="0" width="140" height="12" fill="#000000" rx="2" stroke="#374151" stroke-width="1"/>
        <text x="3" y="4" font-family="monospace" font-size="3" fill="#10b981">g++ -std=c++20 -O3 -Wall -Wextra advanced_algorithm.cpp</text>
        <text x="3" y="8" font-family="monospace" font-size="3" fill="#10b981">Build succeeded. 0 errors, 0 warnings.</text>
    </g>
    
    <!-- Performance Metrics -->
    <g transform="translate(10, 75)">
        <rect x="0" y="0" width="25" height="5" fill="#10b981" rx="1" opacity="0.9"/>
        <text x="12.5" y="3" font-family="Arial" font-size="2" fill="white" text-anchor="middle" font-weight="bold">Zero-cost abstractions</text>
    </g>
    
    <g transform="translate(40, 75)">
        <rect x="0" y="0" width="20" height="5" fill="#3b82f6" rx="1" opacity="0.9"/>
        <text x="10" y="3" font-family="Arial" font-size="2" fill="white" text-anchor="middle" font-weight="bold">RAII</text>
    </g>
    
    <g transform="translate(65, 75)">
        <rect x="0" y="0" width="25" height="5" fill="#8b5cf6" rx="1" opacity="0.9"/>
        <text x="12.5" y="3" font-family="Arial" font-size="2" fill="white" text-anchor="middle" font-weight="bold">Memory Safe</text>
    </g>
    
    <g transform="translate(95, 75)">
        <rect x="0" y="0" width="20" height="5" fill="#ef4444" rx="1" opacity="0.9"/>
        <text x="10" y="3" font-family="Arial" font-size="2" fill="white" text-anchor="middle" font-weight="bold">High Perf</text>
    </g>
    
    <g transform="translate(120, 75)">
        <rect x="0" y="0" width="20" height="5" fill="#f59e0b" rx="1" opacity="0.9"/>
        <text x="10" y="3" font-family="Arial" font-size="2" fill="white" text-anchor="middle" font-weight="bold">Generic</text>
    </g>
    
    <!-- Title -->
    <text x="75" y="98" font-family="Arial" font-size="9" fill="#1e293b" text-anchor="middle" font-weight="bold">Advanced C++ Development</text>
</svg>