<svg width="150" height="100" viewBox="0 0 150 100" xmlns="http://www.w3.org/2000/svg">
  <defs>
    <linearGradient id="chipGrad" x1="0%" y1="0%" x2="100%" y2="100%">
      <stop offset="0%" style="stop-color:#2563eb;stop-opacity:1" />
      <stop offset="100%" style="stop-color:#1e3a8a;stop-opacity:1" />
    </linearGradient>
    <linearGradient id="defectGrad" x1="0%" y1="0%" x2="100%" y2="100%">
      <stop offset="0%" style="stop-color:#ef4444;stop-opacity:1" />
      <stop offset="100%" style="stop-color:#dc2626;stop-opacity:1" />
    </linearGradient>
    <radialGradient id="scanGrad" cx="50%" cy="50%" r="50%">
      <stop offset="0%" style="stop-color:#3b82f6;stop-opacity:0.8" />
      <stop offset="100%" style="stop-color:#3b82f6;stop-opacity:0.1" />
    </radialGradient>
  </defs>
  
  <!-- Background -->
  <rect width="150" height="100" fill="#ffffff" rx="8"/>
  
  <!-- Semiconductor Chip -->
  <rect x="40" y="25" width="70" height="50" rx="4" fill="url(#chipGrad)" stroke="#1e3a8a" stroke-width="2"/>
  
  <!-- Chip Grid Pattern -->
  <g stroke="#3b82f6" stroke-width="0.5" opacity="0.6">
    <line x1="50" y1="30" x2="50" y2="70"/>
    <line x1="60" y1="30" x2="60" y2="70"/>
    <line x1="70" y1="30" x2="70" y2="70"/>
    <line x1="80" y1="30" x2="80" y2="70"/>
    <line x1="90" y1="30" x2="90" y2="70"/>
    <line x1="100" y1="30" x2="100" y2="70"/>
    <line x1="45" y1="35" x2="105" y2="35"/>
    <line x1="45" y1="45" x2="105" y2="45"/>
    <line x1="45" y1="55" x2="105" y2="55"/>
    <line x1="45" y1="65" x2="105" y2="65"/>
  </g>
  
  <!-- Chip Pins -->
  <g fill="#1e40af">
    <!-- Left pins -->
    <rect x="32" y="30" width="8" height="3" rx="1"/>
    <rect x="32" y="36" width="8" height="3" rx="1"/>
    <rect x="32" y="42" width="8" height="3" rx="1"/>
    <rect x="32" y="48" width="8" height="3" rx="1"/>
    <rect x="32" y="54" width="8" height="3" rx="1"/>
    <rect x="32" y="60" width="8" height="3" rx="1"/>
    <rect x="32" y="66" width="8" height="3" rx="1"/>
    
    <!-- Right pins -->
    <rect x="110" y="30" width="8" height="3" rx="1"/>
    <rect x="110" y="36" width="8" height="3" rx="1"/>
    <rect x="110" y="42" width="8" height="3" rx="1"/>
    <rect x="110" y="48" width="8" height="3" rx="1"/>
    <rect x="110" y="54" width="8" height="3" rx="1"/>
    <rect x="110" y="60" width="8" height="3" rx="1"/>
    <rect x="110" y="66" width="8" height="3" rx="1"/>
  </g>
  
  <!-- Defect Detection -->
  <circle cx="85" cy="45" r="8" fill="url(#defectGrad)" opacity="0.8"/>
  <circle cx="85" cy="45" r="4" fill="#ffffff" opacity="0.9"/>
  <text x="85" y="48" font-family="Arial, sans-serif" font-size="10" fill="#ef4444" text-anchor="middle" font-weight="bold">!</text>
  
  <!-- Scanning Beam -->
  <circle cx="65" cy="40" r="12" fill="url(#scanGrad)"/>
  
  <!-- Detection System -->
  <g transform="translate(10, 10)">
    <rect x="0" y="0" width="25" height="15" rx="2" fill="#3b82f6"/>
    <text x="12" y="9" font-family="Arial, sans-serif" font-size="6" fill="#ffffff" text-anchor="middle">DETECTOR</text>
    
    <!-- Scan line -->
    <line x1="15" y1="15" x2="55" y2="35" stroke="#3b82f6" stroke-width="2" stroke-dasharray="2,2"/>
  </g>
  
  <!-- Status Indicators -->
  <g transform="translate(10, 80)">
    <circle cx="5" cy="5" r="3" fill="#22c55e"/>
    <text x="12" y="8" font-family="Arial, sans-serif" font-size="8" fill="#2563eb">GOOD</text>
    
    <circle cx="50" cy="5" r="3" fill="#ef4444"/>
    <text x="57" y="8" font-family="Arial, sans-serif" font-size="8" fill="#2563eb">DEFECT</text>
    
    <text x="100" y="8" font-family="Arial, sans-serif" font-size="8" fill="#1e40af">AUTO-DETECT</text>
  </g>
</svg>