<svg width="150" height="100" viewBox="0 0 150 100" xmlns="http://www.w3.org/2000/svg">
    <defs>
        <linearGradient id="evBg" x1="0%" y1="0%" x2="100%" y2="100%">
            <stop offset="0%" stop-color="#ecfdf5"/>
            <stop offset="100%" stop-color="#d1fae5"/>
        </linearGradient>
        <linearGradient id="dashboardGrad" x1="0%" y1="0%" x2="100%" y2="100%">
            <stop offset="0%" stop-color="#1f2937"/>
            <stop offset="100%" stop-color="#111827"/>
        </linearGradient>
        <linearGradient id="batteryGradient" x1="0%" y1="0%" x2="100%" y2="0%">
            <stop offset="0%" stop-color="#10b981"/>
            <stop offset="80%" stop-color="#10b981"/>
            <stop offset="100%" stop-color="#064e3b"/>
        </linearGradient>
        <linearGradient id="speedGrad" x1="0%" y1="100%" x2="0%" y2="0%">
            <stop offset="0%" stop-color="#3b82f6"/>
            <stop offset="100%" stop-color="#1d4ed8"/>
        </linearGradient>
    </defs>
    
    <!-- Background -->
    <rect width="150" height="100" fill="url(#evBg)" rx="8"/>
    
    <!-- Dashboard Container -->
    <g transform="translate(5, 10)">
        <rect x="0" y="0" width="140" height="75" fill="url(#dashboardGrad)" rx="8" stroke="#374151" stroke-width="1"/>
        
        <!-- Central Display -->
        <g transform="translate(10, 10)">
            <rect x="0" y="0" width="60" height="40" fill="#000000" rx="6" stroke="#3b82f6" stroke-width="1"/>
            
            <!-- Speed Gauge -->
            <g transform="translate(30, 20)">
                <!-- Speedometer Arc -->
                <path d="M -20 0 A 20 20 0 0 1 20 0" stroke="#374151" stroke-width="2" fill="none"/>
                <path d="M -20 0 A 20 20 0 0 1 5 -19" stroke="url(#speedGrad)" stroke-width="3" fill="none"/>
                
                <!-- Speed Value -->
                <text x="0" y="-5" font-family="Arial" font-size="12" fill="white" text-anchor="middle" font-weight="bold">85</text>
                <text x="0" y="5" font-family="Arial" font-size="5" fill="#3b82f6" text-anchor="middle">km/h</text>
                
                <!-- Speed Needle -->
                <line x1="0" y1="0" x2="0" y2="-15" stroke="#ef4444" stroke-width="2" transform="rotate(45)"/>
                <circle cx="0" cy="0" r="2" fill="#ef4444"/>
            </g>
            
            <!-- Drive Mode Indicator -->
            <g transform="translate(5, 32)">
                <rect x="0" y="0" width="20" height="6" fill="#10b981" rx="3" opacity="0.9"/>
                <text x="10" y="4" font-family="Arial" font-size="4" fill="white" text-anchor="middle" font-weight="bold">ECO MODE</text>
            </g>
            
            <!-- Energy Flow -->
            <g transform="translate(35, 32)">
                <rect x="0" y="0" width="20" height="6" fill="#3b82f6" rx="3" opacity="0.9"/>
                <text x="10" y="4" font-family="Arial" font-size="4" fill="white" text-anchor="middle" font-weight="bold">REGEN: 2kW</text>
            </g>
        </g>
        
        <!-- Battery Panel -->
        <g transform="translate(75, 10)">
            <rect x="0" y="0" width="60" height="25" fill="#1f2937" rx="4" stroke="#10b981" stroke-width="1"/>
            
            <!-- Battery Icon -->
            <g transform="translate(5, 5)">
                <rect x="0" y="0" width="20" height="12" fill="#374151" rx="2"/>
                <rect x="1" y="1" width="15" height="10" fill="url(#batteryGradient)" rx="1"/>
                <rect x="20" y="4" width="2" height="4" fill="#10b981" rx="1"/>
                
                <!-- Battery Percentage -->
                <text x="25" y="8" font-family="Arial" font-size="8" fill="#10b981" font-weight="bold">84%</text>
                <text x="25" y="14" font-family="Arial" font-size="4" fill="#9ca3af">425 km range</text>
            </g>
        </g>
        
        <!-- Charging Status -->
        <g transform="translate(75, 40)">
            <rect x="0" y="0" width="60" height="15" fill="#1f2937" rx="4" stroke="#f59e0b" stroke-width="1"/>
            
            <!-- Charging Icon -->
            <g transform="translate(5, 3)">
                <path d="M3 0 L8 5 L5 5 L5 9 L0 4 L3 4 Z" fill="#f59e0b"/>
                <text x="12" y="6" font-family="Arial" font-size="6" fill="#f59e0b" font-weight="bold">Charging: 7.2kW</text>
                <text x="12" y="11" font-family="Arial" font-size="4" fill="#9ca3af">Full in 2h 15m</text>
            </g>
        </g>
    </g>
    
    <!-- Touch Controls -->
    <g transform="translate(10, 60)">
        <!-- Climate -->
        <rect x="0" y="0" width="20" height="15" fill="#3b82f6" rx="3" opacity="0.9"/>
        <text x="10" y="6" font-family="Arial" font-size="4" fill="white" text-anchor="middle" font-weight="bold">❄️ AC</text>
        <text x="10" y="11" font-family="Arial" font-size="3" fill="white" text-anchor="middle">22°C</text>
        
        <!-- Navigation -->
        <rect x="25" y="0" width="20" height="15" fill="#8b5cf6" rx="3" opacity="0.9"/>
        <text x="35" y="6" font-family="Arial" font-size="4" fill="white" text-anchor="middle" font-weight="bold">🗺️ NAV</text>
        <text x="35" y="11" font-family="Arial" font-size="3" fill="white" text-anchor="middle">12 min</text>
        
        <!-- Entertainment -->
        <rect x="50" y="0" width="20" height="15" fill="#ec4899" rx="3" opacity="0.9"/>
        <text x="60" y="6" font-family="Arial" font-size="4" fill="white" text-anchor="middle" font-weight="bold">🎵 Media</text>
        <text x="60" y="11" font-family="Arial" font-size="3" fill="white" text-anchor="middle">Spotify</text>
        
        <!-- Vehicle Settings -->
        <rect x="75" y="0" width="20" height="15" fill="#f59e0b" rx="3" opacity="0.9"/>
        <text x="85" y="6" font-family="Arial" font-size="4" fill="white" text-anchor="middle" font-weight="bold">⚙️ Settings</text>
        <text x="85" y="11" font-family="Arial" font-size="3" fill="white" text-anchor="middle">Vehicle</text>
        
        <!-- Charging -->
        <rect x="100" y="0" width="20" height="15" fill="#10b981" rx="3" opacity="0.9"/>
        <text x="110" y="6" font-family="Arial" font-size="4" fill="white" text-anchor="middle" font-weight="bold">🔌 Charge</text>
        <text x="110" y="11" font-family="Arial" font-size="3" fill="white" text-anchor="middle">Schedule</text>
        
        <!-- Apps -->
        <rect x="125" y="0" width="15" height="15" fill="#6b7280" rx="3" opacity="0.9"/>
        <text x="132.5" y="9" font-family="Arial" font-size="6" fill="white" text-anchor="middle" font-weight="bold">📱</text>
    </g>
    
    <!-- Status Bar -->
    <g transform="translate(5, 5)">
        <!-- Connection Status -->
        <circle cx="5" cy="3" r="2" fill="#10b981"/>
        <text x="10" y="6" font-family="Arial" font-size="4" fill="#374151" font-weight="bold">Connected</text>
        
        <!-- Wifi -->
        <g transform="translate(45, 0)">
            <path d="M0 5 Q2 3 4 5 M-2 6 Q2 1 6 6" stroke="#3b82f6" stroke-width="1" fill="none"/>
            <text x="8" y="6" font-family="Arial" font-size="4" fill="#374151">5G</text>
        </g>
        
        <!-- Time -->
        <text x="70" y="6" font-family="Arial" font-size="4" fill="#374151" font-weight="bold">14:25</text>
        
        <!-- Temperature -->
        <text x="100" y="6" font-family="Arial" font-size="4" fill="#374151">🌡️ 22°C</text>
        
        <!-- Profile -->
        <g transform="translate(125, 0)">
            <circle cx="5" cy="3" r="3" fill="#3b82f6"/>
            <text x="5" y="5" font-family="Arial" font-size="3" fill="white" text-anchor="middle" font-weight="bold">JD</text>
            <text x="10" y="6" font-family="Arial" font-size="3" fill="#374151">John</text>
        </g>
    </g>
    
    <!-- Interface Features -->
    <g transform="translate(5, 80)">
        <rect x="0" y="0" width="25" height="6" fill="#059669" rx="1" opacity="0.9"/>
        <text x="12.5" y="4" font-family="Arial" font-size="3" fill="white" text-anchor="middle" font-weight="bold">Touch Interface</text>
    </g>
    
    <g transform="translate(35, 80)">
        <rect x="0" y="0" width="25" height="6" fill="#dc2626" rx="1" opacity="0.9"/>
        <text x="12.5" y="4" font-family="Arial" font-size="3" fill="white" text-anchor="middle" font-weight="bold">Voice Control</text>
    </g>
    
    <g transform="translate(65, 80)">
        <rect x="0" y="0" width="25" height="6" fill="#7c3aed" rx="1" opacity="0.9"/>
        <text x="12.5" y="4" font-family="Arial" font-size="3" fill="white" text-anchor="middle" font-weight="bold">OTA Updates</text>
    </g>
    
    <g transform="translate(95, 80)">
        <rect x="0" y="0" width="25" height="6" fill="#f59e0b" rx="1" opacity="0.9"/>
        <text x="12.5" y="4" font-family="Arial" font-size="3" fill="white" text-anchor="middle" font-weight="bold">Smart Grid</text>
    </g>
    
    <g transform="translate(125, 80)">
        <rect x="0" y="0" width="20" height="6" fill="#06b6d4" rx="1" opacity="0.9"/>
        <text x="10" y="4" font-family="Arial" font-size="3" fill="white" text-anchor="middle" font-weight="bold">IoT Connect</text>
    </g>
    
    <!-- Title -->
    <text x="75" y="95" font-family="Arial" font-size="9" fill="#1e293b" text-anchor="middle" font-weight="bold">EV Interface Development</text>
</svg>