<svg width="150" height="100" viewBox="0 0 150 100" xmlns="http://www.w3.org/2000/svg">
  <defs>
    <linearGradient id="bg1" x1="0%" y1="0%" x2="100%" y2="100%">
      <stop offset="0%" style="stop-color:#2563eb;stop-opacity:1" />
      <stop offset="100%" style="stop-color:#1e40af;stop-opacity:1" />
    </linearGradient>
  </defs>
  
  <!-- Background -->
  <rect width="150" height="100" fill="url(#bg1)" rx="8"/>
  
  <!-- Shopping Cart -->
  <g transform="translate(20, 25)">
    <path d="M8 4L6 2H2V4H4L6.6 11.59L5.24 14.04C5.09 14.32 5.31 14.6 5.64 14.6H16V12.6H7.1L8 11H14C14.55 11 15.05 10.68 15.22 10.2L17.7 4H6.21" 
          fill="#ffffff" stroke="#ffffff" stroke-width="1"/>
    <circle cx="7" cy="18" r="2" fill="#ffffff"/>
    <circle cx="15" cy="18" r="2" fill="#ffffff"/>
  </g>
  
  <!-- Products -->
  <g transform="translate(45, 20)">
    <!-- Product 1 -->
    <rect x="0" y="0" width="12" height="8" fill="#3b82f6" rx="2"/>
    <rect x="2" y="2" width="8" height="4" fill="#ffffff" rx="1"/>
    
    <!-- Product 2 -->
    <rect x="0" y="12" width="12" height="8" fill="#3b82f6" rx="2"/>
    <rect x="2" y="14" width="8" height="4" fill="#ffffff" rx="1"/>
    
    <!-- Product 3 -->
    <rect x="0" y="24" width="12" height="8" fill="#3b82f6" rx="2"/>
    <rect x="2" y="26" width="8" height="4" fill="#ffffff" rx="1"/>
  </g>
  
  <!-- Recommendation Arrows -->
  <g transform="translate(65, 30)">
    <!-- Arrow 1 -->
    <path d="M0 0L8 4L0 8L2 4Z" fill="#ffffff"/>
    <!-- Arrow 2 -->
    <path d="M0 12L8 16L0 20L2 16Z" fill="#ffffff"/>
  </g>
  
  <!-- Recommended Products -->
  <g transform="translate(80, 20)">
    <!-- Recommended 1 -->
    <rect x="0" y="0" width="15" height="10" fill="#1e3a8a" rx="2"/>
    <rect x="2" y="2" width="11" height="6" fill="#ffffff" rx="1"/>
    <text x="7.5" y="7" font-family="Arial" font-size="6" fill="#2563eb" text-anchor="middle">★</text>
    
    <!-- Recommended 2 -->
    <rect x="0" y="15" width="15" height="10" fill="#1e3a8a" rx="2"/>
    <rect x="2" y="17" width="11" height="6" fill="#ffffff" rx="1"/>
    <text x="7.5" y="22" font-family="Arial" font-size="6" fill="#2563eb" text-anchor="middle">★</text>
  </g>
  
  <!-- AI Brain Icon -->
  <g transform="translate(110, 15)">
    <circle cx="15" cy="15" r="12" fill="#3b82f6" stroke="#ffffff" stroke-width="2"/>
    <path d="M10 12C10 12 12 10 15 10S20 12 20 12" stroke="#ffffff" stroke-width="1.5" fill="none"/>
    <path d="M10 18C10 18 12 20 15 20S20 18 20 18" stroke="#ffffff" stroke-width="1.5" fill="none"/>
    <circle cx="12" cy="13" r="1" fill="#ffffff"/>
    <circle cx="18" cy="13" r="1" fill="#ffffff"/>
    <circle cx="15" cy="16" r="1" fill="#ffffff"/>
  </g>
  
  <!-- Title -->
  <text x="75" y="90" font-family="Arial" font-size="10" fill="#ffffff" text-anchor="middle" font-weight="bold">Recipe Recommendation</text>
</svg>