<svg width="150" height="100" viewBox="0 0 150 100" xmlns="http://www.w3.org/2000/svg">
    <defs>
        <linearGradient id="forecastBg" x1="0%" y1="0%" x2="100%" y2="100%">
            <stop offset="0%" stop-color="#ecfeff"/>
            <stop offset="100%" stop-color="#cffafe"/>
        </linearGradient>
        <linearGradient id="trendGradient" x1="0%" y1="100%" x2="0%" y2="0%">
            <stop offset="0%" stop-color="#0891b2"/>
            <stop offset="100%" stop-color="#06b6d4"/>
        </linearGradient>
    </defs>
    
    <!-- Background -->
    <rect width="150" height="100" fill="url(#forecastBg)" rx="8"/>
    
    <!-- Sales Forecast Chart -->
    <g transform="translate(10, 10)">
        <rect x="0" y="0" width="65" height="40" fill="white" stroke="#e5e7eb" stroke-width="1" rx="4"/>
        
        <!-- Chart Title -->
        <text x="32.5" y="8" font-family="Arial" font-size="6" fill="#374151" text-anchor="middle" font-weight="bold">Sales Forecast</text>
        
        <!-- Grid Lines -->
        <g stroke="#f3f4f6" stroke-width="0.5">
            <line x1="5" y1="15" x2="60" y2="15"/>
            <line x1="5" y1="20" x2="60" y2="20"/>
            <line x1="5" y1="25" x2="60" y2="25"/>
            <line x1="5" y1="30" x2="60" y2="30"/>
            <line x1="5" y1="35" x2="60" y2="35"/>
        </g>
        
        <!-- Historical Data (Solid Line) -->
        <path d="M8 32 L15 28 L22 30 L29 25 L36 27 L43 22" stroke="#0891b2" stroke-width="2" fill="none"/>
        
        <!-- Forecast Data (Dashed Line) -->
        <path d="M43 22 L50 18 L57 16" stroke="#06b6d4" stroke-width="2" fill="none" stroke-dasharray="3,2"/>
        
        <!-- Data Points -->
        <circle cx="8" cy="32" r="1.5" fill="#0891b2"/>
        <circle cx="15" cy="28" r="1.5" fill="#0891b2"/>
        <circle cx="22" cy="30" r="1.5" fill="#0891b2"/>
        <circle cx="29" cy="25" r="1.5" fill="#0891b2"/>
        <circle cx="36" cy="27" r="1.5" fill="#0891b2"/>
        <circle cx="43" cy="22" r="1.5" fill="#0891b2"/>
        
        <!-- Forecast Points -->
        <circle cx="50" cy="18" r="1.5" fill="#06b6d4"/>
        <circle cx="57" cy="16" r="1.5" fill="#06b6d4"/>
        
        <!-- Legend -->
        <g transform="translate(5, 38)">
            <line x1="0" y1="0" x2="8" y2="0" stroke="#0891b2" stroke-width="2"/>
            <text x="10" y="3" font-family="Arial" font-size="4" fill="#6b7280">Historical</text>
            
            <line x1="30" y1="0" x2="38" y2="0" stroke="#06b6d4" stroke-width="2" stroke-dasharray="2,1"/>
            <text x="40" y="3" font-family="Arial" font-size="4" fill="#6b7280">Forecast</text>
        </g>
    </g>
    
    <!-- Inventory Management -->
    <g transform="translate(80, 10)">
        <!-- Warehouse Building -->
        <rect x="0" y="0" width="60" height="30" fill="#0f172a" rx="3"/>
        <rect x="2" y="2" width="56" height="26" fill="#1e293b" rx="2"/>
        
        <!-- Warehouse Roof -->
        <path d="M0 3 L30 0 L60 3 L60 8 L0 8 Z" fill="#374151"/>
        
        <!-- Inventory Grid -->
        <g transform="translate(4, 6)">
            <!-- Full Slots (Green) -->
            <rect x="0" y="0" width="8" height="6" fill="#10b981" opacity="0.8"/>
            <rect x="10" y="0" width="8" height="6" fill="#10b981" opacity="0.8"/>
            <rect x="20" y="0" width="8" height="6" fill="#10b981" opacity="0.8"/>
            <rect x="30" y="0" width="8" height="6" fill="#10b981" opacity="0.8"/>
            <rect x="40" y="0" width="8" height="6" fill="#10b981" opacity="0.8"/>
            <rect x="50" y="0" width="8" height="6" fill="#10b981" opacity="0.8"/>
            
            <rect x="0" y="8" width="8" height="6" fill="#10b981" opacity="0.8"/>
            <rect x="10" y="8" width="8" height="6" fill="#10b981" opacity="0.8"/>
            <rect x="20" y="8" width="8" height="6" fill="#10b981" opacity="0.8"/>
            <rect x="30" y="8" width="8" height="6" fill="#10b981" opacity="0.8"/>
            
            <!-- Partially Full (Yellow) -->
            <rect x="40" y="8" width="8" height="6" fill="#f59e0b" opacity="0.8"/>
            <rect x="50" y="8" width="8" height="6" fill="#f59e0b" opacity="0.8"/>
            
            <!-- Empty Slots (Red) -->
            <rect x="0" y="16" width="8" height="6" fill="#ef4444" opacity="0.3"/>
            <rect x="10" y="16" width="8" height="6" fill="#ef4444" opacity="0.3"/>
            <rect x="20" y="16" width="8" height="6" fill="#ef4444" opacity="0.3"/>
            <rect x="30" y="16" width="8" height="6" fill="#ef4444" opacity="0.3"/>
            <rect x="40" y="16" width="8" height="6" fill="#ef4444" opacity="0.3"/>
            <rect x="50" y="16" width="8" height="6" fill="#ef4444" opacity="0.3"/>
        </g>
        
        <!-- Inventory Level -->
        <text x="30" y="37" font-family="Arial" font-size="6" fill="#374151" text-anchor="middle" font-weight="bold">Inventory: 67% Full</text>
    </g>
    
    <!-- Reorder Alert -->
    <g transform="translate(10, 55)">
        <rect x="0" y="0" width="40" height="12" fill="#fbbf24" rx="6" opacity="0.9"/>
        <text x="20" y="8" font-family="Arial" font-size="5" fill="white" text-anchor="middle" font-weight="bold">⚠ Reorder Alert: Widget A</text>
    </g>
    
    <!-- Demand Prediction -->
    <g transform="translate(55, 55)">
        <rect x="0" y="0" width="35" height="12" fill="#3b82f6" rx="6" opacity="0.9"/>
        <text x="17.5" y="8" font-family="Arial" font-size="5" fill="white" text-anchor="middle" font-weight="bold">📈 High Demand: +25%</text>
    </g>
    
    <!-- Optimization Engine -->
    <g transform="translate(95, 55)">
        <rect x="0" y="0" width="45" height="12" fill="#7c3aed" rx="6" opacity="0.9"/>
        <text x="22.5" y="8" font-family="Arial" font-size="5" fill="white" text-anchor="middle" font-weight="bold">🤖 Auto-Optimize: ON</text>
    </g>
    
    <!-- Key Metrics -->
    <g transform="translate(10, 72)">
        <rect x="0" y="0" width="25" height="8" fill="#059669" rx="2" opacity="0.9"/>
        <text x="12.5" y="5.5" font-family="Arial" font-size="4" fill="white" text-anchor="middle" font-weight="bold">Accuracy: 94%</text>
    </g>
    
    <g transform="translate(40, 72)">
        <rect x="0" y="0" width="25" height="8" fill="#dc2626" rx="2" opacity="0.9"/>
        <text x="12.5" y="5.5" font-family="Arial" font-size="4" fill="white" text-anchor="middle" font-weight="bold">Lead Time: 3d</text>
    </g>
    
    <g transform="translate(70, 72)">
        <rect x="0" y="0" width="25" height="8" fill="#f59e0b" rx="2" opacity="0.9"/>
        <text x="12.5" y="5.5" font-family="Arial" font-size="4" fill="white" text-anchor="middle" font-weight="bold">Turnover: 8.2x</text>
    </g>
    
    <g transform="translate(100, 72)">
        <rect x="0" y="0" width="35" height="8" fill="#8b5cf6" rx="2" opacity="0.9"/>
        <text x="17.5" y="5.5" font-family="Arial" font-size="4" fill="white" text-anchor="middle" font-weight="bold">Cost Savings: 12%</text>
    </g>
    
    <!-- Title -->
    <text x="75" y="95" font-family="Arial" font-size="9" fill="#1e293b" text-anchor="middle" font-weight="bold">Sales Forecast & Inventory Management</text>
</svg>