<svg width="400" height="300" viewBox="0 0 400 300" xmlns="http://www.w3.org/2000/svg">
    <defs>
        <linearGradient id="statsBg" x1="0%" y1="0%" x2="100%" y2="100%">
            <stop offset="0%" stop-color="#f0fdf4"/>
            <stop offset="100%" stop-color="#dcfce7"/>
        </linearGradient>
    </defs>
    <rect width="400" height="300" fill="url(#statsBg)"/>
    
    <!-- Line Chart -->
    <g transform="translate(80, 100)">
        <text x="70" y="-15" text-anchor="middle" fill="#059669" font-size="11" font-weight="600">Treatment Effectiveness</text>
        <polyline points="0,60 30,40 60,25 90,35 120,15 150,20" stroke="#10b981" stroke-width="3" fill="none"/>
        <circle cx="0" cy="60" r="5" fill="#10b981"/>
        <circle cx="60" cy="25" r="5" fill="#10b981"/>
        <circle cx="120" cy="15" r="5" fill="#10b981"/>
        
        <!-- Axes -->
        <line x1="0" y1="65" x2="155" y2="65" stroke="#64748b" stroke-width="2"/>
        <line x1="0" y1="0" x2="0" y2="65" stroke="#64748b" stroke-width="2"/>
    </g>
    
    <!-- Statistical Measures -->
    <g transform="translate(280, 90)">
        <rect x="0" y="0" width="80" height="70" fill="white" stroke="#10b981" stroke-width="2" rx="8"/>
        <text x="40" y="20" text-anchor="middle" fill="#059669" font-size="10" font-weight="700">Statistics</text>
        <text x="10" y="38" fill="#475569" font-size="9">μ = 0.85</text>
        <text x="10" y="50" fill="#475569" font-size="9">σ = 0.12</text>
        <text x="10" y="62" fill="#475569" font-size="9">p < 0.05</text>
    </g>
    
    <!-- Parkinson's Symbol -->
    <g transform="translate(80, 200)">
        <circle cx="0" cy="0" r="25" fill="#8b5cf6" opacity="0.2"/>
        <text x="0" y="8" text-anchor="middle" fill="#7c3aed" font-size="24">🧬</text>
    </g>
    
    <text x="200" y="265" text-anchor="middle" fill="#059669" font-family="Inter, sans-serif" font-size="14" font-weight="700">
        Statistical Analysis - PD Treatment
    </text>
</svg>
