<svg width="400" height="300" viewBox="0 0 400 300" xmlns="http://www.w3.org/2000/svg">
    <defs>
        <pattern id="waves" x="0" y="0" width="40" height="40" patternUnits="userSpaceOnUse">
            <path d="M0,20 Q10,10 20,20 Q30,30 40,20" fill="none" stroke="#2563eb" stroke-width="1" opacity="0.1"/>
        </pattern>
        <linearGradient id="oceanGradient" x1="0%" y1="0%" x2="100%" y2="100%">
            <stop offset="0%" stop-color="#ffffff"/>
            <stop offset="50%" stop-color="#2563eb" stop-opacity="0.1"/>
            <stop offset="100%" stop-color="#1e40af" stop-opacity="0.05"/>
        </linearGradient>
    </defs>
    <rect width="400" height="300" fill="url(#oceanGradient)"/>
    <rect width="400" height="300" fill="url(#waves)"/>
    <g transform="translate(200, 150)">
        <rect x="-30" y="-10" width="60" height="20" fill="#2563eb" rx="5"/>
        <rect x="-10" y="-30" width="20" height="60" fill="#2563eb" rx="5"/>
        <circle cx="-45" cy="-25" r="8" fill="#1e40af" opacity="0.8"/>
        <circle cx="45" cy="-15" r="6" fill="#3b82f6" opacity="0.7"/>
        <circle cx="-35" cy="35" r="7" fill="#1e40af" opacity="0.6"/>
        <circle cx="40" cy="25" r="9" fill="#3b82f6" opacity="0.8"/>
        <path d="M -45,-25 Q -20,-10 45,-15" fill="none" stroke="#1e3a8a" stroke-width="2" opacity="0.5"/>
        <path d="M 45,-15 Q 20,10 -35,35" fill="none" stroke="#1e3a8a" stroke-width="2" opacity="0.5"/>
    </g>
    <text x="200" y="280" text-anchor="middle" fill="#1e3a8a" font-family="Inter, sans-serif" font-size="14" font-weight="600" opacity="0.8">
        NHS Employment Gap Analysis
    </text>
</svg>