<svg width="400" height="300" viewBox="0 0 400 300" xmlns="http://www.w3.org/2000/svg">
    <defs>
        <pattern id="waves" x="0" y="0" width="40" height="40" patternUnits="userSpaceOnUse">
            <path d="M0,20 Q10,10 20,20 Q30,30 40,20" fill="none" stroke="#2563eb" stroke-width="1" opacity="0.1"/>
        </pattern>
        <linearGradient id="oceanGradient" x1="0%" y1="0%" x2="100%" y2="100%">
            <stop offset="0%" stop-color="#ffffff"/>
            <stop offset="50%" stop-color="#2563eb" stop-opacity="0.1"/>
            <stop offset="100%" stop-color="#1e40af" stop-opacity="0.05"/>
        </linearGradient>
    </defs>
    <rect width="400" height="300" fill="url(#oceanGradient)"/>
    <rect width="400" height="300" fill="url(#waves)"/>
    <g transform="translate(200, 120)">
        <circle cx="0" cy="0" r="25" fill="#2563eb" opacity="0.8"/>
        <circle cx="40" cy="-20" r="20" fill="#1e40af" opacity="0.7"/>
        <circle cx="-35" cy="15" r="18" fill="#3b82f6" opacity="0.6"/>
        <circle cx="20" cy="35" r="22" fill="#2563eb" opacity="0.5"/>
        <circle cx="-15" cy="-30" r="16" fill="#1e40af" opacity="0.9"/>
        <line x1="-17.68" y1="-17.68" x2="-31.82" y2="-31.82" stroke="#1e3a8a" stroke-width="2" opacity="0.6"/>
        <line x1="0" y1="-25" x2="0" y2="-45" stroke="#1e3a8a" stroke-width="2" opacity="0.6"/>
        <line x1="17.68" y1="-17.68" x2="31.82" y2="-31.82" stroke="#1e3a8a" stroke-width="2" opacity="0.6"/>
        <line x1="25" y1="0" x2="45" y2="0" stroke="#1e3a8a" stroke-width="2" opacity="0.6"/>
        <line x1="17.68" y1="17.68" x2="31.82" y2="31.82" stroke="#1e3a8a" stroke-width="2" opacity="0.6"/>
        <line x1="0" y1="25" x2="0" y2="45" stroke="#1e3a8a" stroke-width="2" opacity="0.6"/>
        <line x1="-17.68" y1="17.68" x2="-31.82" y2="31.82" stroke="#1e3a8a" stroke-width="2" opacity="0.6"/>
        <line x1="-25" y1="0" x2="-45" y2="0" stroke="#1e3a8a" stroke-width="2" opacity="0.6"/>
    </g>
    <text x="200" y="280" text-anchor="middle" fill="#1e3a8a" font-family="Inter, sans-serif" font-size="14" font-weight="600" opacity="0.8">
        Shakespeare-Style Text Generation
    </text>
</svg>