<svg width="400" height="300" viewBox="0 0 400 300" xmlns="http://www.w3.org/2000/svg">
  <defs>
    <linearGradient id="bg1" x1="0%" y1="0%" x2="100%" y2="100%">
      <stop offset="0%" style="stop-color:#f8fafc;stop-opacity:1" />
      <stop offset="50%" style="stop-color:#e2e8f0;stop-opacity:1" />
      <stop offset="100%" style="stop-color:#cbd5e1;stop-opacity:1" />
    </linearGradient>
    <linearGradient id="textGrad" x1="0%" y1="0%" x2="100%" y2="0%">
      <stop offset="0%" style="stop-color:#1e3a8a;stop-opacity:1" />
      <stop offset="100%" style="stop-color:#2563eb;stop-opacity:1" />
    </linearGradient>
    <marker id="arrowhead" markerWidth="10" markerHeight="7" refX="9" refY="3.5" orient="auto">
      <polygon points="0 0, 10 3.5, 0 7" fill="#1e3a8a" />
    </marker>
  </defs>
  
  <!-- Background -->
  <rect width="400" height="300" fill="url(#bg1)"/>
  
  <!-- Book/Manuscript -->
  <g transform="translate(200, 150)">
    <!-- Book pages -->
    <rect x="-80" y="-60" width="160" height="120" fill="#ffffff" rx="8" stroke="#e2e8f0" stroke-width="2"/>
    <rect x="-75" y="-55" width="150" height="110" fill="#f8fafc" rx="4"/>
    
    <!-- Text lines representing Shakespeare text -->
    <rect x="-65" y="-40" width="130" height="3" fill="url(#textGrad)" rx="1"/>
    <rect x="-65" y="-30" width="100" height="3" fill="url(#textGrad)" rx="1" opacity="0.8"/>
    <rect x="-65" y="-20" width="120" height="3" fill="url(#textGrad)" rx="1" opacity="0.6"/>
    <rect x="-65" y="-10" width="90" height="3" fill="url(#textGrad)" rx="1" opacity="0.8"/>
    <rect x="-65" y="0" width="110" height="3" fill="url(#textGrad)" rx="1"/>
    <rect x="-65" y="10" width="95" height="3" fill="url(#textGrad)" rx="1" opacity="0.7"/>
    <rect x="-65" y="20" width="125" height="3" fill="url(#textGrad)" rx="1" opacity="0.5"/>
    <rect x="-65" y="30" width="80" height="3" fill="url(#textGrad)" rx="1" opacity="0.9"/>
    <rect x="-65" y="40" width="100" height="3" fill="url(#textGrad)" rx="1" opacity="0.6"/>
    
    <!-- Decorative quill -->
    <g transform="translate(90, -40)">
      <path d="M 0,0 Q 5,-15 15,-20 Q 20,-22 25,-20 Q 20,-15 15,-10 L 5,5 Z" fill="#8b5cf6"/>
      <circle cx="15" cy="-15" r="2" fill="#a855f7"/>
      <path d="M 0,0 L -5,8" stroke="#6366f1" stroke-width="2" stroke-linecap="round"/>
    </g>
    
    <!-- HMM nodes representation -->
    <g transform="translate(-90, 70)">
      <circle cx="0" cy="0" r="8" fill="#2563eb" opacity="0.8"/>
      <circle cx="25" cy="0" r="8" fill="#3b82f6" opacity="0.8"/>
      <circle cx="50" cy="0" r="8" fill="#1e40af" opacity="0.8"/>
      <circle cx="75" cy="0" r="8" fill="#2563eb" opacity="0.8"/>
      
      <!-- Arrows between nodes -->
      <path d="M 8,0 L 17,0" stroke="#1e3a8a" stroke-width="2" marker-end="url(#arrowhead)"/>
      <path d="M 33,0 L 42,0" stroke="#1e3a8a" stroke-width="2" marker-end="url(#arrowhead)"/>
      <path d="M 58,0 L 67,0" stroke="#1e3a8a" stroke-width="2" marker-end="url(#arrowhead)"/>
      
      <!-- Self loops -->
      <path d="M 0,-8 Q 0,-18 0,-8" stroke="#1e3a8a" stroke-width="1.5" fill="none"/>
      <path d="M 25,-8 Q 25,-18 25,-8" stroke="#1e3a8a" stroke-width="1.5" fill="none"/>
    </g>
  </g>
  
  <!-- Title -->
  <text x="200" y="280" text-anchor="middle" fill="#1e3a8a" font-family="Inter, sans-serif" font-size="16" font-weight="700">
    Shakespeare Text Generation
  </text>
  
  <!-- Subtitle -->
  <text x="200" y="295" text-anchor="middle" fill="#475569" font-family="Inter, sans-serif" font-size="12">
    Hidden Markov Models
  </text>
</svg>