<svg width="400" height="300" viewBox="0 0 400 300" xmlns="http://www.w3.org/2000/svg">
    <defs>
        <linearGradient id="skyGradient" x1="0%" y1="0%" x2="100%" y2="100%">
            <stop offset="0%" stop-color="#fefbff"/>
            <stop offset="50%" stop-color="#f0f9ff"/>
            <stop offset="100%" stop-color="#e0f2fe"/>
        </linearGradient>
        <linearGradient id="turbineGradient" x1="0%" y1="0%" x2="100%" y2="100%">
            <stop offset="0%" stop-color="#475569"/>
            <stop offset="100%" stop-color="#334155"/>
        </linearGradient>
        <linearGradient id="bladeGradient" x1="0%" y1="0%" x2="100%" y2="100%">
            <stop offset="0%" stop-color="#f8fafc"/>
            <stop offset="100%" stop-color="#e2e8f0"/>
        </linearGradient>
        <linearGradient id="windGradient" x1="0%" y1="0%" x2="100%" y2="100%">
            <stop offset="0%" stop-color="#06b6d4"/>
            <stop offset="100%" stop-color="#0891b2"/>
        </linearGradient>
        <linearGradient id="dataGradient" x1="0%" y1="0%" x2="100%" y2="100%">
            <stop offset="0%" stop-color="#10b981"/>
            <stop offset="100%" stop-color="#059669"/>
        </linearGradient>
    </defs>
    
    <!-- Background -->
    <rect width="400" height="300" fill="url(#skyGradient)"/>
    
    <!-- Ground line -->
    <rect x="0" y="250" width="400" height="50" fill="#84cc16" opacity="0.3"/>
    
    <!-- Wind Turbine -->
    <g transform="translate(200, 180)">
        <!-- Turbine tower -->
        <rect x="-6" y="0" width="12" height="70" fill="url(#turbineGradient)" rx="6"/>
        
        <!-- Turbine base/foundation -->
        <rect x="-15" y="65" width="30" height="10" fill="url(#turbineGradient)" rx="5"/>
        
        <!-- Nacelle (turbine housing) -->
        <rect x="-20" y="-15" width="40" height="20" fill="url(#turbineGradient)" rx="10"/>
        
        <!-- Rotor hub -->
        <circle cx="0" cy="-5" r="8" fill="#374151"/>
        
        <!-- Turbine blades -->
        <g id="blades">
            <!-- Blade 1 -->
            <ellipse cx="0" cy="-45" rx="6" ry="35" fill="url(#bladeGradient)" stroke="#cbd5e1" stroke-width="1"/>
            <!-- Blade 2 -->
            <ellipse cx="31" cy="15" rx="6" ry="35" fill="url(#bladeGradient)" stroke="#cbd5e1" stroke-width="1" transform="rotate(120 0 -5)"/>
            <!-- Blade 3 -->
            <ellipse cx="-31" cy="15" rx="6" ry="35" fill="url(#bladeGradient)" stroke="#cbd5e1" stroke-width="1" transform="rotate(240 0 -5)"/>
        </g>
        
        <!-- Yaw direction indicator -->
        <path d="M25,-5 L35,-5 L30,-15 Z" fill="#f59e0b"/>
        <text x="40" y="-8" fill="#f59e0b" font-family="Inter, sans-serif" font-size="8" font-weight="600">YAW</text>
    </g>
    
    <!-- Wind flow visualization -->
    <g transform="translate(50, 120)">
        <!-- Wind arrows -->
        <path d="M0,20 L25,20 L20,15 M25,20 L20,25" fill="none" stroke="url(#windGradient)" stroke-width="3"/>
        <path d="M0,35 L30,35 L25,30 M30,35 L25,40" fill="none" stroke="url(#windGradient)" stroke-width="3"/>
        <path d="M0,50 L25,50 L20,45 M25,50 L20,55" fill="none" stroke="url(#windGradient)" stroke-width="3"/>
        <path d="M0,65 L30,65 L25,60 M30,65 L25,70" fill="none" stroke="url(#windGradient)" stroke-width="3"/>
        
        <!-- Wind speed text -->
        <text x="0" y="10" fill="#0891b2" font-family="Inter, sans-serif" font-size="10" font-weight="600">Wind Direction</text>
    </g>
    
    <!-- Control System -->
    <g transform="translate(300, 120)">
        <rect x="0" y="0" width="70" height="50" fill="url(#dataGradient)" rx="10"/>
        <text x="35" y="15" text-anchor="middle" fill="white" font-family="Inter, sans-serif" font-size="9" font-weight="600">Control</text>
        <text x="35" y="27" text-anchor="middle" fill="white" font-family="Inter, sans-serif" font-size="9" font-weight="600">System</text>
        
        <!-- Control indicators -->
        <circle cx="15" cy="35" r="3" fill="#ffffff" opacity="0.8"/>
        <circle cx="35" cy="35" r="3" fill="#ffffff" opacity="0.6"/>
        <circle cx="55" cy="35" r="3" fill="#ffffff" opacity="0.7"/>
        
        <!-- Data lines -->
        <rect x="8" y="40" width="12" height="2" fill="#ffffff" opacity="0.5" rx="1"/>
        <rect x="28" y="40" width="14" height="2" fill="#ffffff" opacity="0.7" rx="1"/>
        <rect x="48" y="40" width="10" height="2" fill="#ffffff" opacity="0.6" rx="1"/>
    </g>
    
    <!-- Sensor Data -->
    <g transform="translate(120, 200)">
        <rect x="0" y="0" width="60" height="35" fill="#8b5cf6" rx="8"/>
        <text x="30" y="14" text-anchor="middle" fill="white" font-family="Inter, sans-serif" font-size="8" font-weight="600">Sensors</text>
        <text x="30" y="25" text-anchor="middle" fill="white" font-family="Inter, sans-serif" font-size="8" font-weight="600">Data</text>
        
        <!-- Sensor indicators -->
        <circle cx="10" cy="8" r="2" fill="#ffffff" opacity="0.8"/>
        <circle cx="30" cy="8" r="2" fill="#ffffff" opacity="0.6"/>
        <circle cx="50" cy="8" r="2" fill="#ffffff" opacity="0.7"/>
    </g>
    
    <!-- Data flow arrows -->
    <path d="M180 200 Q190 190 195 175" fill="none" stroke="#8b5cf6" stroke-width="2" marker-end="url(#arrowPurple)"/>
    <path d="M220 175 Q260 160 295 150" fill="none" stroke="#10b981" stroke-width="2" marker-end="url(#arrowGreen)"/>
    <path d="M120 135 Q150 145 175 160" fill="none" stroke="#06b6d4" stroke-width="2" marker-end="url(#arrowBlue)"/>
    
    <!-- Arrow markers -->
    <defs>
        <marker id="arrowPurple" markerWidth="8" markerHeight="6" refX="7" refY="3" orient="auto">
            <polygon points="0 0, 8 3, 0 6" fill="#8b5cf6"/>
        </marker>
        <marker id="arrowGreen" markerWidth="8" markerHeight="6" refX="7" refY="3" orient="auto">
            <polygon points="0 0, 8 3, 0 6" fill="#10b981"/>
        </marker>
        <marker id="arrowBlue" markerWidth="8" markerHeight="6" refX="7" refY="3" orient="auto">
            <polygon points="0 0, 8 3, 0 6" fill="#06b6d4"/>
        </marker>
    </defs>
    
    <text x="200" y="285" text-anchor="middle" fill="#1e40af" font-family="Inter, sans-serif" font-size="14" font-weight="600">
        Wind Turbine Yaw System Analysis
    </text>
</svg>